<?xml version="1.0" encoding="utf-8"?>
<!-- Generator: Adobe Illustrator 26.4.1, SVG Export Plug-In . SVG Version: 6.00 Build 0)  -->
<svg version="1.1" id="Layer_1" xmlns="http://www.w3.org/2000/svg" xmlns:xlink="http://www.w3.org/1999/xlink" x="0px" y="0px"
	 viewBox="0 0 461.4 407.2" style="enable-background:new 0 0 461.4 407.2;" xml:space="preserve">
<style type="text/css">
	.st0{fill:#FFFFFF;stroke:#1D1D1B;stroke-linecap:round;stroke-linejoin:round;stroke-miterlimit:10;}
	.st1{fill:#AD5D47;}
	.st2{fill:#FFD5BD;}
	.st3{fill:#B66752;}
	.st4{fill:#A85A45;}
	.st5{fill:#C58575;}
	.st6{fill:#FD9FA4;}
	.st7{fill:#362328;}
	.st8{fill:#FFFFFF;}
	.st9{fill:none;stroke:#1D1D1B;stroke-linecap:round;stroke-linejoin:round;stroke-miterlimit:10;}
</style>
<rect class="st0" width="461.4" height="407.2"/>
<g>
	<path class="st1" d="M187.3,250.5c13.3-9,22.5-26,18.3-41.9l2.5-18.3c-14.1-23-32.5-44.4-56.8-54.1c-25.9-10.4-59.5-4-73.6,22
		c-13.4,5.5-23.1,21-23.3,36.6c-0.2,19.3,11.7,37.2,27.1,47.6c15.4,10.5,34,14.6,52.2,16.6c16.9,1.9,34.8,1.9,50-6.3
		C185,252,186.2,251.2,187.3,250.5z"/>
	<path class="st1" d="M72.3,164.8c0,0-0.2-0.1-0.5-0.2c-0.3-0.2-0.8-0.4-1.3-0.8c-1.1-0.7-2.7-2.2-3.9-4.7c-0.6-1.2-1-2.7-1.4-4.3
		c-0.3-1.7-0.3-3.5-0.1-5.5c0.3-2,0.8-4.1,1.9-6.2c0.3-0.5,0.6-1,0.9-1.6c0.3-0.5,0.7-1,1-1.5c0.4-0.5,0.8-1,1.2-1.4
		c0.4-0.4,0.9-0.9,1.3-1.4c3.7-3.6,8.7-6.2,14.1-8.1c2.7-0.9,5.5-1.6,8.3-2.3c1.4-0.4,2.9-0.6,4.4-0.9c1.5-0.3,3-0.5,4.6-0.7
		c12.3-1.6,26.4-0.9,40.3,3.1c14,3.9,26.3,10.9,35.8,18.9c9.6,8,16.5,16.9,21.3,24.7c4.8,7.9,7.5,14.9,9.1,19.7
		c0.4,1.2,0.7,2.3,1,3.2c0.2,0.9,0.4,1.7,0.6,2.4c0.3,1.3,0.5,2,0.5,2s-0.4-0.6-1.1-1.7c-0.3-0.6-0.8-1.3-1.3-2.1
		c-0.5-0.8-1.1-1.7-1.8-2.8c-2.7-4.1-6.9-10-12.8-16.4c-5.9-6.4-13.5-13.2-22.8-19.4c-9.3-6.1-20.3-11.4-32.6-14.8
		c-12.2-3.5-24.4-4.9-35.5-4.8c-1.4,0-2.8,0-4.1,0.1c-1.4,0.1-2.7,0.1-4,0.3c-2.7,0.2-5.2,0.5-7.6,0.9c-4.7,0.8-8.9,2.2-12.1,4.2
		c-6.7,3.8-8.3,11.2-7.4,15.7c0.4,2.3,1.4,3.9,2.2,4.9c0.4,0.5,0.8,0.8,1,1.1C72.2,164.6,72.3,164.8,72.3,164.8z"/>
	<path class="st1" d="M69.4,173.5c0,0-0.2,0-0.7,0.1c-0.4,0.1-1.1,0.1-2,0.3c-1.7,0.3-4.2,1-7,2.6c-2.8,1.5-5.9,4-8.6,7.5
		c-2.7,3.5-4.9,8.1-5.5,13.3c-0.7,5.3,0.1,11.2,2.4,17.1c1.1,2.9,2.7,5.8,4.6,8.5c1.9,2.7,4.1,5.3,6.7,7.8
		c5.2,4.9,11.6,9.1,18.8,12.7c7.2,3.6,15.1,6.7,23.3,9.2c16.5,4.9,32.9,6.2,47.4,3.9c14.5-2.3,26.7-8.5,35.6-15.6
		c4.4-3.5,8.1-7.3,11-10.8c0.7-0.9,1.4-1.8,2-2.6c0.6-0.9,1.2-1.7,1.7-2.5c1.2-1.6,2-3.2,2.8-4.6c0.4-0.7,0.7-1.4,1.1-2.1
		c0.3-0.7,0.6-1.3,0.9-1.8c0.6-1.1,0.9-2.2,1.2-3c0.6-1.6,1-2.5,1-2.5s-0.1,0.9-0.4,2.6c-0.2,0.9-0.3,2-0.6,3.2
		c-0.2,0.6-0.3,1.3-0.5,2c-0.2,0.7-0.4,1.5-0.7,2.3c-0.6,1.6-1.1,3.4-2,5.3c-0.4,0.9-0.8,1.9-1.4,2.9c-0.5,1-1.1,2-1.7,3.1
		c-2.4,4.2-5.7,8.8-10,13.2c-4.3,4.5-9.6,8.8-15.9,12.6c-6.3,3.8-13.7,6.9-21.8,8.9c-1,0.2-2,0.4-3.1,0.7l-1.6,0.3l-1.6,0.3
		c-1.1,0.2-2.1,0.3-3.2,0.5c-1.1,0.1-2.1,0.2-3.2,0.3l-1.6,0.2l-1.6,0.1c-1.1,0.1-2.2,0.1-3.3,0.2c-1.1,0-2.2,0-3.3,0l-1.7,0
		l-1.7-0.1c-4.5-0.1-9.1-0.7-13.6-1.4c-4.6-0.8-9.1-1.9-13.7-3.2c-9.1-2.7-17.6-6.3-25.4-10.6c-7.8-4.3-15.1-9.6-20.8-16
		c-2.9-3.1-5.4-6.6-7.4-10.2c-2-3.6-3.5-7.2-4.5-11c-2.1-7.4-2.1-14.8-0.4-21.1c0.8-3.2,2.2-6,3.7-8.5c1.5-2.5,3.3-4.5,5.1-6.3
		c3.6-3.5,7.5-5.5,10.8-6.6c3.3-1.1,5.9-1.3,7.7-1.3c0.9,0,1.6,0.1,2,0.1C69.2,173.5,69.4,173.5,69.4,173.5z"/>
</g>
<path class="st2" d="M142.7,152.7c0-41.9,55-75,86.5-75.6v0h11.4v0c31.5,0.5,86.5,33.6,86.5,75.6c0,0-4.9,77.4-10.2,111.1
	c-5.3,33.7-61.7,72.5-82,72.5s-76.6-38.8-82-72.5C147.6,230.1,142.7,152.7,142.7,152.7z"/>
<g>
	<path class="st3" d="M349.3,160.3c-2-27.1-12.5-48.2-29-70.3c-16.6-22.1-43-38.3-71.4-39.1C222.8,50.2,196,64.2,185,86.5
		c-16-3.9-34.9,2.4-46.5,14.3c-3.7,3.8-6.8,8.1-9.4,12.6c-7.5,13.3-10.5,29.2-10.9,44.5c-0.2,7.7,0.1,15.4,0.6,23.1
		c0,7.4,0.2,30.6,0.9,58.8c1.1,40.4,24.9,89.8,24.9,89.8c-16-61,1.2-120.5,16-156.1c13.8-10.7,25.9-23.4,36.4-38.6
		c0,0,30.3,29.6,61.7,48.2c32.4,19.2,59.8,24.7,90.8,28C349.3,211.2,351,182.4,349.3,160.3z"/>
	<path class="st4" d="M194.2,122.7c-6.1-34.2,24.4-61,56.2-64.7c12.9-1.8,25.8-0.1,37.9,4c-12-6.7-25.4-10.7-39.3-11.1
		C222.8,50.2,196,64.2,185,86.5c-16-3.9-34.9,2.4-46.5,14.3c-3.7,3.8-6.8,8.1-9.4,12.6c-7.5,13.3-10.5,29.2-10.9,44.5
		c-0.1,2.6-0.1,5.3,0,7.9c5.7-15.5,5.2-35.5,13.2-49.3C144.7,93.4,183.2,99.5,194.2,122.7z"/>
	<g>
		<path class="st3" d="M304.5,309.8c22.8-50.1,28.6-116,16.3-169.6c0,0,0.3,0.5,1,1.5c30.9,48.4,25.6,126.2-16,167
			C304.9,309.4,304.5,309.8,304.5,309.8z"/>
		<path class="st3" d="M309.4,339.7c-0.2,0.4,4.2-7.7,5.4-10.2c8.6-18.3,13.3-39.3,15.5-59.6c0.3-4,0.6-8,1-12
			c0.2-4.1,0.3-8.2,0.6-12.4c0-4.2,0.1-8.2,0.2-12.3c-0.1-3.9-0.1-7.9,0-11.8c-0.3-12.4-0.6-24.8-0.9-37.1
			c-0.3-8.3-0.5-16.5-0.6-24.3c-0.1-1.6-0.1-3-0.1-4.3c-0.1-5.3,0.1-8.4,0.1-8.4c-0.2-0.5,5.1,7.7,6.4,10.3
			c3.6,7.1,6.6,15.2,8.8,23.5c0.4,1.2,0.6,2.5,0.9,3.9c0.7,3.4,1.4,7,1.9,10.5c1.1,8.6,1.5,17.5,1.3,26.3c-0.3,4.3-0.6,8.7-0.9,13
			c-0.6,4.4-1.2,8.8-1.9,13.3c-0.9,4.4-1.8,8.7-2.9,13c-1.1,4.1-2.3,8.1-3.5,12.2c-4,12.3-8.9,24.3-14.5,35.8
			c-3.5,7.2-7.4,14.2-11,20.7C313.7,332.2,309.2,340.1,309.4,339.7z"/>
	</g>
	<g>
		<path class="st5" d="M365.1,262c0,0,0.2-0.8,0.6-2.4c0.4-1.6,0.7-4,0.9-7c0-3-0.3-6.7-1.4-10.8c-1.1-4.1-2.9-8.5-5.6-13
			c-1.4-2.2-3-4.4-4.9-6.6c-0.9-1.1-1.9-2.1-2.9-3.1c-0.5-0.5-1.1-1-1.6-1.5l-0.8-0.7c-0.3-0.2-0.6-0.5-0.9-0.7
			c-2.3-2-4.9-3.7-7.7-5.4c-2.8-1.7-5.7-3.2-8.9-4.6c-6.3-2.8-13.3-5.1-20.8-7c-7.5-1.9-15.4-3.5-23.7-5.2c-8.3-1.7-16.6-3.5-24.5-6
			c-4-1.2-7.8-2.6-11.6-4.2c-1.8-0.8-3.7-1.6-5.5-2.5c-1.8-0.9-3.5-1.8-5.2-2.7c-6.7-3.7-12.7-8-17.9-12.4c-5.2-4.4-9.5-9-13.2-13.3
			c-5-5.9-10-12.9-12.7-17.7c0,0,13.2,9.7,17.3,13.3c4,3.6,8.6,7.3,13.9,10.8c5.2,3.5,11.1,6.8,17.4,9.7c1.6,0.7,3.2,1.4,4.9,2.1
			c1.7,0.7,3.4,1.3,5.1,1.9c3.5,1.2,7.1,2.3,10.8,3.2c7.4,2,15.4,3.5,23.7,5.2c8.3,1.7,16.5,3.5,24.5,5.9c7.9,2.4,15.5,5.4,22.3,9.1
			c3.4,1.9,6.6,3.9,9.6,6.2c3,2.2,5.7,4.6,8.1,7.1c0.3,0.3,0.6,0.6,0.9,0.9c0.3,0.3,0.6,0.7,0.9,1c0.6,0.7,1.1,1.3,1.7,2
			c1,1.4,2.1,2.7,2.9,4c1.8,2.7,3.2,5.5,4.5,8.2c2.3,5.4,3.6,10.7,4,15.3c0.4,4.6,0,8.6-0.6,11.7c-0.7,3.1-1.6,5.4-2.3,6.9
			C365.5,261.2,365.1,262,365.1,262z"/>
		<path class="st5" d="M154.2,353.2c-3.9-3.8-7.5-8-10.5-12.5c-3-4.5-5.6-9.3-7.7-14.3c-2.1-5-3.7-10.1-5-15.3
			c-1.2-5.2-2.1-10.4-2.7-15.7c-0.6-5.2-0.8-10.5-0.8-15.8c0-5.2,0.3-10.5,0.9-15.7c0.3-2.6,0.6-5.2,1-7.8c0.4-2.6,0.9-5.1,1.3-7.7
			l0.3-1.9l0.4-1.9l0.8-3.8c0.3-1.3,0.5-2.5,0.8-3.8l1-3.8c10.3-40.2,25-62.7,54.8-91.6l7.9-6.7c-2.9,8.1-12.5,21-17.5,27.8
			c-21.1,25.9-36.4,57-43.8,90.4c-2,8.3-3.2,16.9-3.8,25.5c-0.6,8.6-0.4,17.3,0.8,26c1.2,8.7,3.3,17.3,6.9,25.6
			C142.9,338.6,147.9,346.5,154.2,353.2z"/>
	</g>
</g>
<g>
	<g>
		<path class="st6" d="M192.4,258c0,3.5-7.5,6.3-16.8,6.3c-9.3,0-16.8-2.8-16.8-6.3c0-3.5,7.5-6.3,16.8-6.3
			C184.9,251.8,192.4,254.6,192.4,258z"/>
		<path class="st6" d="M311.4,258c0,3.5-7.5,6.3-16.8,6.3c-9.3,0-16.8-2.8-16.8-6.3c0-3.5,7.5-6.3,16.8-6.3
			C303.9,251.8,311.4,254.6,311.4,258z"/>
	</g>
</g>
<g>
	<g>
		<circle class="st7" cx="191.9" cy="225.8" r="19.2"/>
		<path class="st8" d="M193.4,214.1c1.6,2.8-0.6,7.1-4.9,9.5c-4.3,2.5-9.1,2.2-10.7-0.6c-1.6-2.8,0.6-7.1,4.9-9.5
			S191.8,211.3,193.4,214.1z"/>
		<path class="st8" d="M203.4,225.2c0,2.1-1.7,3.8-3.8,3.8c-2.1,0-3.8-1.7-3.8-3.8c0-2.1,1.7-3.8,3.8-3.8
			C201.7,221.4,203.4,223.1,203.4,225.2z"/>
		<path class="st8" d="M192.2,231.8c0,1.5-1.2,2.7-2.7,2.7s-2.7-1.2-2.7-2.7s1.2-2.7,2.7-2.7S192.2,230.3,192.2,231.8z"/>
	</g>
	<g>
		<circle class="st7" cx="278.2" cy="225.8" r="19.2"/>
		<path class="st8" d="M279.7,214.1c1.6,2.8-0.6,7.1-4.9,9.5c-4.3,2.5-9.1,2.2-10.7-0.6c-1.6-2.8,0.6-7.1,4.9-9.5
			C273.3,211,278.1,211.3,279.7,214.1z"/>
		<circle class="st8" cx="285.9" cy="225.2" r="3.8"/>
		<path class="st8" d="M278.5,231.8c0,1.5-1.2,2.7-2.7,2.7s-2.7-1.2-2.7-2.7s1.2-2.7,2.7-2.7S278.5,230.3,278.5,231.8z"/>
	</g>
</g>
<polygon class="st9" points="256.2,279.1 255.5,278.5 234.7,294.7 214.8,278.5 214.1,279.1 234.7,295.9 235.3,295.3 235.4,295.3 "/>
</svg>
