<?xml version="1.0" encoding="utf-8"?>
<!-- Generator: Adobe Illustrator 26.4.1, SVG Export Plug-In . SVG Version: 6.00 Build 0)  -->
<svg version="1.1" id="Layer_1" xmlns="http://www.w3.org/2000/svg" xmlns:xlink="http://www.w3.org/1999/xlink" x="0px" y="0px"
	 viewBox="0 0 595.3 217.2" style="enable-background:new 0 0 595.3 217.2;" xml:space="preserve">
<style type="text/css">
	.st0{fill:#FFFFFF;}
</style>
<g>
	<path class="st0" d="M503.4,153.6c-7.7-3-14-7.3-16.5-15.7c-0.7-2.5-0.7-5.6-4.1-5.9c-4.2-0.3-4.5,3.5-5.1,6.1
		c-1.9,7.9-6.1,12.8-14.6,13.6c-16,1.4-23.7-8-20.4-24.9c0.7-3.4,3.3-9-1.8-10c-4.8-1-4.9,4.9-6.1,8.5c-3.1,9.3,0.8,17.6,4.9,27
		c-11.4-1.2-20.2-5.7-29.6-8c-8-2-8.6-6.5-8.9-13.4c-0.3-7.2,4.2-7.4,8.9-9c18.9-6.7,38.4-11.8,56.1-21.3
		c6.5-3.5,14.5-7.2,14.1-16.2c-0.4-8.9-8-13-15-16.9c-2-1.1-4.3-1.7-6.4-2.5c-18.6-7.2-38.2-9.7-57.9-11.7
		c-38.1-3.8-76.4-4.5-114.7-4c-5,0.1-8.1-0.5-8.1-6.5c0-2.1-0.4-6-4.3-5.1c-2.7,0.6-3.3,3.4-2.4,5.6c2.4,6.7-2.1,5.8-6.1,6
		c-17.1,0.6-34.3,1.2-51.4,2.1c-4.6,0.2-9.2,0.8-13.7,2c-3,0.8-5.8,3.4-3,6.5c4.1,4.6,12.6,6.3,14.9,2.8c4.5-6.8,10.1-5,15.5-5.4
		c10.5-0.7,21.1-0.4,31.6-1.3c6.7-0.6,8.3,1.4,8.1,7.9c-0.5,27.3-0.4,54.5-0.5,81.8c0,5.9,0.2,11.8,1.8,17.6c0.6,2,1.2,4.1,3.6,3.9
		c1.6-0.2,2.7-2,2.7-3.7c0-2-0.5-3.9-0.7-5.8c-2.5-30,0.3-60,0.9-90.1c2.5,7.5,4.2,15,5.6,22.5c4.5,24,9.7,48,9.9,72.6
		c0,2.4,0.2,4.8,3.4,4.9c2.7,0,2.9-2.4,3.4-4.1c0.5-1.9,1.1-4,0.7-5.8c-2.1-9.1,3-8.5,9-7c1.6,0.4,3.2,0.8,4.8,1
		c2.1,0.3,4.3,0,5-2.2c1-3.3-2-3.3-4-4.1c-5.2-2.3-11.5-0.9-17-5.5c4.1-2.1,7.7-3.7,10.9-5.7c2.2-1.4,6.2-2.5,4.2-6.2
		c-1.9-3.6-4.6-0.3-6.8,0.4c-3,0.9-5.4,3.7-9,3.3c-4.6-23.5-9-47-13.7-70.4c-0.7-3.7-0.6-5.5,3.9-5.5c36.5,0,73,0.8,111.5,4.2
		c-0.1,0.1-0.2,0.1-0.3,0.2c23.9,2.2,46.1,4.5,66.7,14c4.4,2,9.4,5,9.3,10.5c0,4.7-5.2,6.3-8.9,8.3c-18.3,9.9-38.2,15.6-57.7,22.4
		c-5.7,2-5.4-1.4-5.5-4.6c-0.4-10.8-0.6-21.6-1-32.5c-0.2-5.6,0.5-11.4-3.6-17.7c-4.8,3.4-4.4,7.4-4.3,11.3
		c0.6,13.4,1.2,26.9,1.7,40.3c0.3,7.5-6.4,12.9-13.7,10.5c-14.8-4.7-29.9-4.4-45.1-4.2c-2.9,0-7.4-0.6-7.4,2.9
		c0,4.8,4.9,2.8,7.8,3.1c7.3,0.6,14.8-0.8,21.8,2.3c-9,2.1-18.2,3-26,8.2c-3.7,2.5-6.4,6-5.4,10.7c1.2,5.1,5.6,6.2,10,6.3
		c15,0.3,29.6-2.1,43.3-8.1c7.9-3.5,14.8,0.1,15,8.9c0.1,3.3,0,6.6,0,9.9c0,2.9-0.8,6.7,3.4,6.9c4.8,0.2,4.3-4,4.4-7.2
		c0.1-3.9,0-7.8,0-12.9c8.3,2.7,15.1,5.1,21.9,7.1c21.4,6.6,43.1,11.8,65.6,12.9c3.2,0.2,7.5,0.3,7.2-4.4c-0.2-4.1-4.2-3.4-7.1-3.2
		c-9.3,0.7-18.2-1.8-29.6-2.6c8.9-2.2,15-5.6,21.2-8.8c6.7-3.4,10,8.8,17.5,9.6c0.6,0.1,1.2,0.5,1.8,0.7c2.8,0.8,6.2,2.5,7.8-1
		C509.8,155.8,506,154.6,503.4,153.6z M338.3,145.8c-2.1,0-5.1,1-6-1.9c-1-3.1,1.6-4.7,3.9-6c8.4-4.8,17.9-3.6,27-4.1
		c4.8-0.2,10.7-3.2,14.1,3.9C364.8,143,351.8,145.5,338.3,145.8z M384,131.2c3.2-1.1,5.8-4.4,8.7-2.5c1.3,0.9,0.7,4.8,1,7.6
		C389.4,136.2,386.5,134.8,384,131.2z"/>
	<path class="st0" d="M395.5,59.9c0.1,0.2,0.2,0.3,0.3,0.4c0.2-0.1,0.4-0.2,0.6-0.4C396.1,60,395.8,60,395.5,59.9z"/>
	<path class="st0" d="M185.7,135.9c-8.1-24.4-12.8-49.4-11.8-75.2c0.2-4.2,1.5-11-4.8-10.9c-5.7,0.1-4.8,6.7-5.2,11.1
		c0,0.3,0,0.7,0,1c2.5,22.1-4.1,42.7-10.2,63.4c-2.2,7.5-5.6,14.7-10.9,20.7c-4.5,5-9.2,5.2-13.3,0c-8.2-10.3-13-22.4-13-35.2
		c0-8.3,3.9-16.3-2.2-24.2c-2-2.5-1-8.1-6.1-7.3c-4.7,0.8-4.2,5.5-3.8,8.9c1.7,13.7,2.5,27.4-0.4,41.1c-2,9.3-4.2,18.5-3.9,28.1
		c0.1,2.8,0.5,5.6,3.8,6c3.4,0.4,4.3-2.2,4.8-5c1.3-8.2,2.6-16.5,4-25.9c1.1,1.8,1.6,2.5,2,3.3c4.8,9.4,9.2,20.1,22,19.8
		c12.6-0.3,16.5-11.4,21.2-20.7c0.5-0.9,1-1.7,1.3-2.7c3.2-10.2,6.4-20.4,10.1-32.3c2.3,25,13.7,46.1,15.5,69.4
		c0.2,3.3-1.1,8.5,4.5,7.9c4.9-0.5,3.8-5.3,3.4-8.8C191.7,157.4,189.2,146.5,185.7,135.9z"/>
	<path class="st0" d="M248.4,121.4c-13.5-3.6-27.4-3.2-41.2-3c-2.9,0-7.2-0.5-7.1,3.2c0.1,3.9,4.5,2.6,7.3,2.8
		c7.5,0.6,15.4-1.2,22.6,2.6c-9,1.3-17.8,2.7-25.5,7.5c-4.1,2.5-7.2,6.1-5.9,11.3c1.3,5.1,5.8,5.9,10.2,6.1
		c14,0.5,27.4-2.6,40.6-6.8c2.2-0.7,6-1.6,4.7-5c-1.2-3.3-4.2-1.7-6.7-0.8c-11.2,3.8-22.8,6.5-34.7,6.7c-2.6,0-6.6,1.5-7.3-2.6
		c-0.5-3.5,2.9-4.9,5.5-6.1c2.3-1.1,4.9-2.1,7.5-2.3c9.8-0.9,19.7-1.3,29.5-2.2c3.6-0.3,9.2,1,9.3-4.6
		C257.3,123.2,252.2,122.4,248.4,121.4z"/>
</g>
</svg>
